<?xml version="1.0" encoding="UTF-8"?><svg xmlns="http://www.w3.org/2000/svg" xmlns:xlink="http://www.w3.org/1999/xlink" width="612" zoomAndPan="magnify" viewBox="0 0 612 791.999994" height="791.999994" preserveAspectRatio="xMidYMid meet" version="1.0"><defs><clipPath id="clip-0"><path d="M 357 102.757812 L 559 102.757812 L 559 689.257812 L 357 689.257812 Z M 357 102.757812 " clip-rule="nonzero"/></clipPath><clipPath id="clip-1"><path d="M 52 102.757812 L 254 102.757812 L 254 689.257812 L 52 689.257812 Z M 52 102.757812 " clip-rule="nonzero"/></clipPath></defs><rect x="-61.2" width="734.4" fill="rgb(100%, 100%, 100%)" y="-79.199999" height="950.399992" fill-opacity="1"/><rect x="-61.2" width="734.4" fill="rgb(100%, 100%, 100%)" y="-79.199999" height="950.399992" fill-opacity="1"/><rect x="-61.2" width="734.4" fill="rgb(100%, 100%, 100%)" y="-79.199999" height="950.399992" fill-opacity="1"/><g clip-path="url(#clip-0)"><path fill="rgb(45.098877%, 45.098877%, 45.098877%)" d="M 524.609375 102.84375 L 392.179688 102.84375 C 373.25 102.84375 357.921875 118.179688 357.921875 137.097656 L 357.921875 654.902344 C 357.921875 673.824219 373.25 689.160156 392.179688 689.160156 L 524.609375 689.160156 C 543.519531 689.160156 558.847656 673.824219 558.847656 654.902344 L 558.847656 137.097656 C 558.859375 118.179688 543.53125 102.84375 524.609375 102.84375 Z M 524.609375 102.84375 " fill-opacity="1" fill-rule="nonzero"/></g><g clip-path="url(#clip-1)"><path fill="rgb(45.098877%, 45.098877%, 45.098877%)" d="M 219.597656 102.84375 L 87.148438 102.84375 C 68.234375 102.84375 52.90625 118.179688 52.90625 137.097656 L 52.90625 654.914062 C 52.90625 673.832031 68.234375 689.167969 87.148438 689.167969 L 219.597656 689.167969 C 238.507812 689.167969 253.835938 673.832031 253.835938 654.914062 L 253.835938 137.097656 C 253.835938 118.179688 238.507812 102.84375 219.597656 102.84375 Z M 219.597656 102.84375 " fill-opacity="1" fill-rule="nonzero"/></g></svg>