<?xml version="1.0" encoding="UTF-8"?>
<svg width="121px" height="37px" viewBox="0 0 121 37" version="1.1" xmlns="http://www.w3.org/2000/svg" xmlns:xlink="http://www.w3.org/1999/xlink">
    <!-- Generator: sketchtool 63.1 (101010) - https://sketch.com -->
    <title>6503ABBD-D58B-4975-B237-B730B64AC426</title>
    <desc>Created with sketchtool.</desc>
    <g id="Health-Summary" stroke="none" stroke-width="1" fill="none" fill-rule="evenodd">
        <g id="DataTonic---Health-Dashboard" transform="translate(-135.000000, -14.000000)" fill="#FFFFFF" fill-rule="nonzero">
            <g id="datatonic-logo-03" transform="translate(135.000000, 14.000000)">
                <path d="M22,3.19 C25.82,5.33 31.86,6.68 36.34,7.11 C35.84,11.16 34.72,17.85 32.01,22.85 C28.85,28.67 24.5,32.85 22.01,34.25 C19.51,32.89 15.16,28.67 12.01,22.85 C9.3,17.85 8.18,11.16 7.68,7.11 C12.18,6.68 18.22,5.33 22,3.19 M22,0.19 C18.4,3 9.45,4.75 4.93,4.75 C5.39,9.47 6.46,17.81 9.83,24.04 C13.39,30.59 18.83,35.91 22,37 C25.21,35.93 30.65,30.61 34.21,24.06 C37.58,17.83 38.65,9.49 39.11,4.77 C34.63,4.75 25.69,3 22,0.21 L22,0.19 Z" id="Shape"></path>
                <path d="M21.81,9.65 C23.1773338,9.57763513 24.5113396,10.0878124 25.4814477,11.0541087 C26.4515558,12.020405 26.9669811,13.3523919 26.9,14.72 L26.9,16.33 C26.9704433,17.6976707 26.455776,19.030739 25.4845469,19.9962438 C24.5133178,20.9617486 23.1772304,21.4685267 21.81,21.39 L16.9,21.39 L16.9,20.39 L18.21,20.16 L18.21,10.9 L16.9,10.68 L16.9,9.68 L21.81,9.68 L21.81,9.65 Z M19.81,10.9 L19.81,20.14 L21.81,20.14 C22.7845488,20.1912094 23.7297387,19.7976868 24.38,19.07 C25.0210572,18.3047198 25.3527801,17.3273855 25.31,16.33 L25.31,14.71 C25.3452539,13.7228222 25.0139854,12.7575127 24.38,12 C23.730775,11.2698216 22.7859212,10.8727624 21.81,10.92 L19.81,10.9 Z" id="Shape"></path>
                <path d="M48.71,12.7 C50.1246776,12.6163218 51.5084141,13.136893 52.5171424,14.1322733 C53.5258707,15.1276536 54.0648272,16.5043333 54,17.92 L54,19.57 C54.0769516,20.9810337 53.5471606,22.3576829 52.5441127,23.3530886 C51.5410647,24.3484942 50.1604039,24.867741 48.75,24.78 L43.65,24.78 L43.65,23.78 L45,23.51 L45,14 L43.65,13.76 L43.65,12.7 L48.71,12.7 Z M46.64,14 L46.64,23.52 L48.71,23.52 C49.7154694,23.5682397 50.689068,23.1604305 51.36,22.41 C52.0347389,21.6244684 52.391421,20.615058 52.36,19.58 L52.36,17.9 C52.3883371,16.8714684 52.0317284,15.869398 51.36,15.09 C50.6861461,14.3457646 49.7124823,13.9452765 48.71,14 L46.64,14 Z" id="Shape"></path>
                <path d="M60.59,24.78 C60.59,24.54 60.5,24.32 60.47,24.13 C60.4401179,23.9378169 60.4200917,23.7442304 60.41,23.55 C60.0854741,23.9569309 59.6846484,24.2966137 59.23,24.55 C58.7690623,24.8100406 58.2492255,24.9477457 57.72,24.95 C56.9441896,25.0061262 56.1769076,24.7587315 55.58,24.26 C55.0734544,23.7496376 54.8080078,23.0478404 54.85,22.33 C54.8029562,21.5327332 55.1839603,20.770725 55.85,20.33 C56.7039444,19.8242237 57.6890923,19.5840286 58.68,19.64 L60.4,19.64 L60.4,18.63 C60.4238201,18.1622892 60.2453187,17.7069284 59.91,17.38 C59.5214648,17.0564861 59.0248208,16.8921291 58.52,16.92 C58.1538582,16.916675 57.7894509,16.9706613 57.44,17.08 C57.1596895,17.1693099 56.9009192,17.3157194 56.68,17.51 L56.5,18.46 L55.24,18.46 L55.24,16.72 C55.6872766,16.3725323 56.1914085,16.1052409 56.73,15.93 C57.3404472,15.7329232 57.9785483,15.6350135 58.62,15.64 C59.5098439,15.5983713 60.3854461,15.8748772 61.09,16.42 C61.7599306,16.9612904 62.1314224,17.7897173 62.09,18.65 L62.09,23.32 C62.09,23.43 62.09,23.54 62.09,23.65 L62.76,23.74 L62.76,24.74 L60.59,24.78 Z M58,23.59 C58.5193562,23.5948767 59.0304914,23.4601857 59.48,23.2 C59.899442,22.9931518 60.2476271,22.6658578 60.48,22.26 L60.48,20.78 L58.66,20.78 C58.0918709,20.7504304 57.5307467,20.9162973 57.07,21.25 C56.7045119,21.5100231 56.4882004,21.9314575 56.49,22.38 C56.4687004,22.7188485 56.6008876,23.0493163 56.85,23.28 C57.1822029,23.5211647 57.5915945,23.6315224 58,23.59 L58,23.59 Z" id="Shape"></path>
                <path d="M66.1,13.64 L66.1,15.8 L67.8,15.8 L67.8,17 L66.1,17 L66.1,22.45 C66.0639251,22.7695193 66.1575924,23.0901497 66.36,23.34 C66.5460045,23.5143972 66.795454,23.6047775 67.05,23.59 L67.54,23.59 L68,23.5 L68.22,24.62 C68.0097469,24.7405397 67.7793358,24.8218612 67.54,24.86 C67.2482184,24.9277534 66.9495418,24.9613126 66.65,24.96 C66.0595198,24.9904756 65.4831407,24.772974 65.06,24.36 C64.6246458,23.8309074 64.4129622,23.1528023 64.47,22.47 L64.47,17 L63,17 L63,15.8 L64.42,15.8 L64.42,13.64 L66.1,13.64 Z" id="Path"></path>
                <path d="M74.48,24.78 C74.48,24.54 74.39,24.32 74.36,24.13 C74.3301179,23.9378169 74.3100917,23.7442304 74.3,23.55 C73.9754741,23.9569309 73.5746484,24.2966137 73.12,24.55 C72.6559386,24.811277 72.1325576,24.9490088 71.6,24.95 C70.8275606,25.0034909 70.0643529,24.7562545 69.47,24.26 C68.9601365,23.7517782 68.6941038,23.0484315 68.74,22.33 C68.6950266,21.5331594 69.0755434,20.7721256 69.74,20.33 C70.5986382,19.8267689 71.5861817,19.5868375 72.58,19.64 L74.26,19.64 L74.26,18.63 C74.2838201,18.1622892 74.1053187,17.7069284 73.77,17.38 C73.3814648,17.0564861 72.8848208,16.8921291 72.38,16.92 C72.0138582,16.916675 71.6494509,16.9706613 71.3,17.08 C71.018087,17.1656052 70.7585689,17.3124378 70.54,17.51 L70.36,18.46 L69.13,18.46 L69.13,16.72 C69.5772766,16.3725323 70.0814085,16.1052409 70.62,15.93 C71.2304472,15.7329232 71.8685483,15.6350135 72.51,15.64 C73.3998439,15.5983713 74.2754461,15.8748772 74.98,16.42 C75.6460229,16.9642919 76.016582,17.7906387 75.98,18.65 L75.98,23.32 C75.98,23.43 75.98,23.54 75.98,23.65 L76.65,23.74 L76.65,24.74 L74.48,24.78 Z M71.85,23.59 C72.3693562,23.5948767 72.8804914,23.4601857 73.33,23.2 C73.749442,22.9931518 74.0976271,22.6658578 74.33,22.26 L74.33,20.78 L72.55,20.78 C71.9818709,20.7504304 71.4207467,20.9162973 70.96,21.25 C70.5945119,21.5100231 70.3782004,21.9314575 70.38,22.38 C70.3587004,22.7188485 70.4908876,23.0493163 70.74,23.28 C71.0607122,23.5133917 71.4547665,23.6234429 71.85,23.59 L71.85,23.59 Z" id="Shape"></path>
                <polygon id="Path" points="90.12 12.7 90.12 15.37 88.72 15.37 88.6 14 85.92 14 85.92 23.52 87.27 23.75 87.27 24.75 82.93 24.75 82.93 23.75 84.28 23.52 84.28 14 81.59 14 81.48 15.38 80.07 15.38 80.07 12.7"></polygon>
                <path d="M89.5,20.21 C89.4527905,19.0222173 89.8363367,17.8573733 90.58,16.93 C91.3021781,16.0667708 92.385642,15.5897508 93.51,15.64 C94.6349806,15.590307 95.7199178,16.0626606 96.45,16.92 C97.1903764,17.8530231 97.5733591,19.019702 97.53,20.21 L97.53,20.39 C97.5833835,21.5800386 97.2031946,22.7490309 96.46,23.68 C95.7027377,24.5008447 94.6367956,24.9677316 93.52,24.9677316 C92.4032044,24.9677316 91.3372623,24.5008447 90.58,23.68 C89.8348438,22.7495579 89.4512613,21.581052 89.5,20.39 L89.5,20.21 Z M91.14,20.39 C91.1061158,21.2182891 91.314636,22.0384689 91.74,22.75 C92.1435642,23.3319803 92.8067874,23.6791568 93.515,23.6791568 C94.2232126,23.6791568 94.8864358,23.3319803 95.29,22.75 C95.7232833,22.0414073 95.935648,21.2197995 95.9,20.39 L95.9,20.21 C95.9318511,19.3837606 95.719694,18.5664341 95.29,17.86 C94.8870476,17.2738162 94.2213242,16.9236012 93.51,16.9236012 C92.7986758,16.9236012 92.1329524,17.2738162 91.73,17.86 C91.3116157,18.5703699 91.1067781,19.3862481 91.14,20.21 L91.14,20.39 Z" id="Shape"></path>
                <path d="M97.94,23.74 L99.29,23.51 L99.29,17.09 L97.94,16.86 L97.94,15.8 L100.75,15.8 L100.87,17.14 C101.144047,16.6704368 101.532869,16.2781732 102,16 C102.468962,15.7339776 103.000948,15.5992539 103.54,15.61 C104.377283,15.5569465 105.196935,15.8665927 105.79,16.46 C106.380864,17.2033231 106.666869,18.1435641 106.59,19.09 L106.59,23.48 L107.94,23.71 L107.94,24.71 L103.6,24.71 L103.6,23.71 L104.95,23.48 L104.95,19.15 C105.007316,18.5494688 104.843776,17.9486361 104.49,17.46 C104.082036,17.1005259 103.539608,16.933065 103,17 C102.559364,16.9912308 102.125486,17.1092456 101.75,17.34 C101.383285,17.5650399 101.085715,17.8868307 100.89,18.27 L100.89,23.54 L102.24,23.77 L102.24,24.77 L97.9,24.77 L97.94,23.74 Z" id="Path"></path>
                <path d="M108.27,23.74 L109.62,23.51 L109.62,17.09 L108.27,16.86 L108.27,15.8 L111.27,15.8 L111.27,23.51 L112.62,23.74 L112.62,24.74 L108.28,24.74 L108.27,23.74 Z M111.27,13.5 L109.63,13.5 L109.63,11.84 L111.27,11.84 L111.27,13.5 Z" id="Shape"></path>
                <path d="M117,23.68 C117.520547,23.6861539 118.026701,23.5091768 118.43,23.18 C118.817497,22.8893931 119.046867,22.4343516 119.05,21.95 L120.52,21.95 L120.52,22 C120.532658,22.8064947 120.161509,23.571062 119.52,24.06 C118.823971,24.6542592 117.935094,24.9742549 117.02,24.96 C115.873546,25.0335303 114.760245,24.5585221 114.02,23.68 C113.320834,22.7602291 112.966906,21.6241198 113.02,20.47 L113.02,20.12 C112.968419,18.9691548 113.322312,17.8366987 114.02,16.92 C114.759262,16.0401504 115.873267,15.5648416 117.02,15.64 C117.697231,15.6288856 118.370024,15.7512117 119,16 C119.54086,16.2253108 120.025618,16.56669 120.42,17 L120.5,19 L119.19,19 L118.84,17.58 C118.621085,17.3834083 118.366482,17.2306467 118.09,17.13 C117.770555,17.0090767 117.431561,16.9480577 117.09,16.95 C116.351829,16.8956391 115.643992,17.2534049 115.25,17.88 C114.862676,18.5721903 114.672454,19.3572905 114.7,20.15 L114.7,20.5 C114.668757,21.2994364 114.859099,22.091952 115.25,22.79 C115.637569,23.3722711 116.30117,23.7097595 117,23.68 Z" id="Path"></path>
                <path d="M30.33,29.58 L29.33,29.58 C22.73,29.45 11.13,26.81 5.03,23.21 C1.68,21.21 0.03,19.09 0.16,17.21 C0.208049201,15.7790261 1.33148868,14.6166983 2.76,14.52 C1.79002751,15.2600351 1.42359865,16.550679 1.86,17.69 C2.34,19.04 3.23,19.85 6.05,21.52 C11.71,24.86 23.05,27.52 29.36,27.61 C35.25,27.71 35.97,27.48 37.11,26.61 C37.6196561,26.1529844 37.9014625,25.4942163 37.88,24.81 C38.3457916,25.6781338 38.3457916,26.7218662 37.88,27.59 C37.09,29 34.82,29.58 30.33,29.58 Z" id="Path"></path>
            </g>
        </g>
    </g>
</svg>