<?xml version="1.0" encoding="UTF-8"?><svg xmlns="http://www.w3.org/2000/svg" xmlns:xlink="http://www.w3.org/1999/xlink" width="705" zoomAndPan="magnify" viewBox="0 0 705 591.000005" height="591.000005" preserveAspectRatio="xMidYMid meet" version="1.0"><defs><clipPath id="clip-0"><path d="M 0.59375 0 L 704.402344 0 L 704.402344 590 L 0.59375 590 Z M 0.59375 0 " clip-rule="nonzero"/></clipPath><clipPath id="clip-1"><path d="M 83.355469 25.859375 L 621.695312 25.859375 L 621.695312 564.195312 L 83.355469 564.195312 Z M 83.355469 25.859375 " clip-rule="nonzero"/></clipPath></defs><g clip-path="url(#clip-0)"><path fill="rgb(100%, 100%, 100%)" d="M 0.59375 0 L 704.40625 0 L 704.40625 597.488281 L 0.59375 597.488281 Z M 0.59375 0 " fill-opacity="1" fill-rule="nonzero"/><path fill="rgb(100%, 100%, 100%)" d="M 0.59375 0 L 704.40625 0 L 704.40625 590 L 0.59375 590 Z M 0.59375 0 " fill-opacity="1" fill-rule="nonzero"/><path fill="rgb(96.469116%, 96.859741%, 98.039246%)" d="M 0.59375 0 L 704.40625 0 L 704.40625 590 L 0.59375 590 Z M 0.59375 0 " fill-opacity="1" fill-rule="nonzero"/></g><g clip-path="url(#clip-1)"><path fill="rgb(50.19989%, 50.588989%, 51.759338%)" d="M 352.527344 25.859375 C 203.878906 25.859375 83.355469 146.378906 83.355469 295.027344 C 83.355469 443.675781 203.878906 564.195312 352.527344 564.195312 C 501.175781 564.195312 621.695312 443.675781 621.695312 295.027344 C 621.695312 146.378906 501.175781 25.859375 352.527344 25.859375 Z M 352.527344 523.820312 C 226.164062 523.820312 123.734375 421.390625 123.734375 295.027344 C 123.734375 168.664062 226.164062 66.234375 352.527344 66.234375 C 478.886719 66.234375 581.320312 168.664062 581.320312 295.027344 C 581.320312 421.390625 478.886719 523.820312 352.527344 523.820312 Z M 352.527344 523.820312 " fill-opacity="1" fill-rule="nonzero"/></g><path fill="rgb(50.19989%, 50.588989%, 51.759338%)" d="M 296.5 388.347656 L 309.367188 325.886719 C 310.589844 319.898438 311.371094 315.699219 311.746094 313.304688 C 312.109375 310.910156 312.300781 309.066406 312.300781 307.707031 C 312.300781 303.425781 310.160156 301.03125 305.867188 300.546875 C 303.417969 300.289062 301.277344 299.925781 299.445312 299.441406 C 296.5 298.703125 294.171875 297.300781 292.460938 295.214844 C 290.738281 293.128906 289.890625 290.679688 289.890625 287.867188 C 289.890625 282.59375 291.9375 277.667969 296.042969 273.078125 C 300.144531 268.472656 306.484375 264.101562 315.058594 259.941406 C 325.703125 254.921875 337.332031 250.84375 349.957031 247.722656 C 362.566406 244.613281 374.019531 243.039062 384.300781 243.039062 C 390.910156 243.039062 396.117188 244.839844 399.914062 248.449219 C 403.710938 252.066406 405.605469 257.0625 405.605469 263.414062 C 405.605469 266.359375 405.121094 271.152344 404.152344 277.828125 C 403.171875 284.503906 401.582031 293.601562 399.375 305.09375 L 392.941406 337.421875 C 390.613281 349.667969 388.90625 359.34375 387.800781 366.4375 C 386.699219 373.53125 386.144531 378.320312 386.144531 380.757812 C 386.144531 383.085938 386.335938 384.675781 386.699219 385.535156 C 387.0625 386.382812 387.734375 386.828125 388.714844 386.828125 C 390.0625 386.828125 391.773438 386.667969 393.859375 386.371094 C 395.929688 386.074219 397.34375 385.914062 398.070312 385.914062 C 401.019531 385.914062 403.347656 387.015625 405.054688 389.222656 C 406.777344 391.417969 407.625 394.363281 407.625 398.023438 C 407.625 402.695312 405.96875 407.460938 402.671875 412.371094 C 399.363281 417.257812 394.707031 421.914062 388.714844 426.328125 C 379.28125 433.179688 369.214844 438.507812 358.503906 442.304688 C 347.777344 446.097656 337.414062 448.011719 327.371094 448.011719 C 315.988281 448.011719 307.320312 445.734375 301.382812 441.214844 C 295.449219 436.679688 292.476562 430.070312 292.476562 421.363281 C 292.476562 417.082031 292.796875 412.277344 293.484375 406.949219 C 294.144531 401.660156 295.152344 395.441406 296.5 388.347656 Z M 339.472656 209.984375 C 329.191406 209.984375 320.925781 207.871094 314.679688 203.644531 C 308.4375 199.417969 305.3125 193.875 305.3125 187.023438 C 305.3125 181.261719 307.359375 175.757812 311.464844 170.484375 C 315.570312 165.21875 321.789062 160.199219 330.117188 155.421875 C 337.332031 151.265625 345.328125 147.980469 354.074219 145.613281 C 362.824219 143.214844 371.125 142.019531 378.972656 142.019531 C 389.632812 142.019531 398.3125 144.105469 405.042969 148.261719 C 411.785156 152.433594 415.148438 157.699219 415.148438 164.0625 C 415.148438 175.691406 407.585938 186.257812 392.457031 195.746094 C 377.34375 205.234375 359.6875 209.984375 339.472656 209.984375 Z M 339.472656 209.984375 " fill-opacity="1" fill-rule="nonzero"/></svg>