<?xml version="1.0" encoding="UTF-8"?><svg xmlns="http://www.w3.org/2000/svg" xmlns:xlink="http://www.w3.org/1999/xlink" width="705" zoomAndPan="magnify" viewBox="0 0 705 591.000005" height="591.000005" preserveAspectRatio="xMidYMid meet" version="1.0"><defs><clipPath id="clip-0"><path d="M 0.59375 0 L 704.402344 0 L 704.402344 590 L 0.59375 590 Z M 0.59375 0 " clip-rule="nonzero"/></clipPath><clipPath id="clip-1"><path d="M 397 40.773438 L 573 40.773438 L 573 549.164062 L 397 549.164062 Z M 397 40.773438 " clip-rule="nonzero"/></clipPath><clipPath id="clip-2"><path d="M 133 40.773438 L 308 40.773438 L 308 549.164062 L 133 549.164062 Z M 133 40.773438 " clip-rule="nonzero"/></clipPath></defs><g clip-path="url(#clip-0)"><path fill="rgb(100%, 100%, 100%)" d="M 0.59375 0 L 704.40625 0 L 704.40625 597.488281 L 0.59375 597.488281 Z M 0.59375 0 " fill-opacity="1" fill-rule="nonzero"/><path fill="rgb(100%, 100%, 100%)" d="M 0.59375 0 L 704.40625 0 L 704.40625 590 L 0.59375 590 Z M 0.59375 0 " fill-opacity="1" fill-rule="nonzero"/><path fill="rgb(96.469116%, 96.859741%, 98.039246%)" d="M 0.59375 0 L 704.40625 0 L 704.40625 590 L 0.59375 590 Z M 0.59375 0 " fill-opacity="1" fill-rule="nonzero"/></g><g clip-path="url(#clip-1)"><path fill="rgb(34.509277%, 34.899902%, 35.688782%)" d="M 542.355469 40.851562 L 427.453125 40.851562 C 411.027344 40.851562 397.730469 54.144531 397.730469 70.542969 L 397.730469 519.386719 C 397.730469 535.785156 411.027344 549.082031 427.453125 549.082031 L 542.355469 549.082031 C 558.765625 549.082031 572.0625 535.785156 572.0625 519.386719 L 572.0625 70.542969 C 572.074219 54.144531 558.773438 40.851562 542.355469 40.851562 Z M 542.355469 40.851562 " fill-opacity="1" fill-rule="nonzero"/></g><g clip-path="url(#clip-2)"><path fill="rgb(34.509277%, 34.899902%, 35.688782%)" d="M 277.710938 40.851562 L 162.792969 40.851562 C 146.382812 40.851562 133.085938 54.144531 133.085938 70.542969 L 133.085938 519.394531 C 133.085938 535.796875 146.382812 549.089844 162.792969 549.089844 L 277.710938 549.089844 C 294.121094 549.089844 307.417969 535.796875 307.417969 519.394531 L 307.417969 70.542969 C 307.417969 54.144531 294.121094 40.851562 277.710938 40.851562 Z M 277.710938 40.851562 " fill-opacity="1" fill-rule="nonzero"/></g></svg>